# Blender v3.0.0 OBJ File: ''
# www.blender.org
o Cylinder
v -0.000000 1.595627 -0.990496
v 0.143193 -0.957803 -0.719878
v 0.000000 -0.957803 -0.733981
v 0.193236 1.595627 -0.971464
v 0.280882 -0.957803 -0.678110
v 0.379047 1.595627 -0.915098
v 0.407778 -0.957803 -0.610283
v 0.550290 1.595627 -0.823567
v 0.519003 -0.957803 -0.519003
v 0.700387 1.595627 -0.700386
v 0.610283 -0.957803 -0.407778
v 0.823567 1.595627 -0.550290
v 0.678110 -0.957803 -0.280882
v 0.915098 1.595627 -0.379046
v 0.719878 -0.957803 -0.143193
v 0.971464 1.595627 -0.193236
v 0.733981 -0.957803 -0.000000
v 0.990496 1.595627 0.000000
v 0.719878 -0.957803 0.143193
v 0.915098 1.595627 0.379047
v 0.678110 -0.957803 0.280882
v 0.610283 -0.957803 0.407778
v 0.823567 1.595627 0.550290
v 0.519003 -0.957803 0.519003
v 0.550290 1.595627 0.823567
v 0.407778 -0.957803 0.610283
v 0.280883 -0.957803 0.678110
v 0.379047 1.595627 0.915098
v 0.143193 -0.957803 0.719878
v 0.193236 1.595627 0.971464
v 0.000000 -0.957803 0.733981
v -0.000000 1.595627 0.990496
v -0.143193 -0.957803 0.719878
v -0.193236 1.595627 0.971464
v -0.280882 -0.957803 0.678110
v -0.379047 1.595627 0.915098
v -0.407778 -0.957803 0.610283
v -0.550290 1.595627 0.823567
v -0.519003 -0.957803 0.519003
v -0.700387 1.595627 0.700387
v -0.610283 -0.957803 0.407778
v -0.823567 1.595627 0.550290
v -0.678110 -0.957803 0.280883
v -0.915098 1.595627 0.379047
v -0.719878 -0.957803 0.143193
v -0.971464 1.595627 0.193236
v -0.733981 -0.957803 -0.000000
v -0.990496 1.595627 0.000000
v -0.719878 -0.957803 -0.143193
v -0.971464 1.595627 -0.193236
v -0.678110 -0.957803 -0.280883
v -0.915098 1.595627 -0.379046
v -0.610283 -0.957803 -0.407778
v -0.823567 1.595627 -0.550290
v -0.519003 -0.957803 -0.519003
v -0.700387 1.595627 -0.700386
v -0.407778 -0.957803 -0.610283
v -0.550290 1.595627 -0.823567
v -0.280882 -0.957803 -0.678110
v -0.379047 1.595627 -0.915098
v -0.143193 -0.957803 -0.719878
v -0.193236 1.595627 -0.971464
v 0.133812 -0.879014 -0.672720
v -0.000000 1.595627 -0.901351
v 0.000000 -0.879014 -0.685900
v 0.262482 -0.879014 -0.633688
v 0.175847 1.595627 -0.884033
v 0.500765 1.595627 -0.749448
v 0.344933 1.595627 -0.832741
v 0.485005 -0.879014 -0.485005
v 0.381066 -0.879014 -0.570304
v 0.570304 -0.879014 -0.381066
v 0.637354 1.595627 -0.637353
v 0.633688 -0.879014 -0.262482
v 0.749449 1.595627 -0.500765
v 0.884034 1.595627 -0.175846
v 0.832742 1.595627 -0.344933
v 0.685900 -0.879014 -0.000000
v 0.672720 -0.879014 -0.133812
v 0.672720 -0.879014 0.133812
v 0.901351 1.595627 0.000000
v 0.633688 -0.879014 0.262482
v 0.884034 1.595627 0.175847
v 0.570304 -0.879014 0.381066
v 0.832742 1.595627 0.344933
v 0.485005 -0.879014 0.485005
v 0.749449 1.595627 0.500765
v 0.381066 -0.879014 0.570304
v 0.637354 1.595627 0.637354
v 0.262482 -0.879014 0.633688
v 0.500765 1.595627 0.749449
v 0.175847 1.595627 0.884034
v 0.344933 1.595627 0.832742
v 0.000000 -0.879014 0.685900
v 0.133812 -0.879014 0.672720
v -0.133812 -0.879014 0.672720
v -0.000000 1.595627 0.901351
v -0.262482 -0.879014 0.633688
v -0.175847 1.595627 0.884034
v -0.381066 -0.879014 0.570304
v -0.344933 1.595627 0.832742
v -0.485005 -0.879014 0.485005
v -0.500765 1.595627 0.749449
v -0.570304 -0.879014 0.381066
v -0.637354 1.595627 0.637354
v -0.832742 1.595627 0.344933
v -0.749449 1.595627 0.500765
v -0.672720 -0.879014 0.133812
v -0.633688 -0.879014 0.262483
v -0.685900 -0.879014 -0.000000
v -0.884034 1.595627 0.175847
v -0.672720 -0.879014 -0.133812
v -0.901351 1.595627 0.000000
v -0.633688 -0.879014 -0.262483
v -0.884034 1.595627 -0.175846
v -0.749449 1.595627 -0.500765
v -0.832742 1.595627 -0.344933
v -0.485005 -0.879014 -0.485005
v -0.570304 -0.879014 -0.381066
v -0.381066 -0.879014 -0.570304
v -0.637354 1.595627 -0.637353
v -0.262482 -0.879014 -0.633688
v -0.500765 1.595627 -0.749448
v -0.133812 -0.879014 -0.672720
v -0.344933 1.595627 -0.832741
v -0.175847 1.595627 -0.884033
v 0.971464 1.595627 0.193236
v 0.700387 1.595627 0.700387
vt 1.000000 1.000000
vt 0.968750 0.500000
vt 1.000000 0.500000
vt 0.968750 1.000000
vt 0.937500 0.500000
vt 0.937500 1.000000
vt 0.906250 0.500000
vt 0.906250 1.000000
vt 0.875000 0.500000
vt 0.875000 1.000000
vt 0.843750 0.500000
vt 0.843750 1.000000
vt 0.812500 0.500000
vt 0.812500 1.000000
vt 0.781250 0.500000
vt 0.781250 1.000000
vt 0.750000 0.500000
vt 0.750000 1.000000
vt 0.718750 0.500000
vt 0.687500 1.000000
vt 0.687500 0.500000
vt 0.656250 0.500000
vt 0.656250 1.000000
vt 0.625000 0.500000
vt 0.593750 1.000000
vt 0.593750 0.500000
vt 0.562500 0.500000
vt 0.562500 1.000000
vt 0.531250 0.500000
vt 0.531250 1.000000
vt 0.500000 0.500000
vt 0.500000 1.000000
vt 0.468750 0.500000
vt 0.468750 1.000000
vt 0.437500 0.500000
vt 0.437500 1.000000
vt 0.406250 0.500000
vt 0.406250 1.000000
vt 0.375000 0.500000
vt 0.375000 1.000000
vt 0.343750 0.500000
vt 0.343750 1.000000
vt 0.312500 0.500000
vt 0.312500 1.000000
vt 0.281250 0.500000
vt 0.281250 1.000000
vt 0.250000 0.500000
vt 0.250000 1.000000
vt 0.218750 0.500000
vt 0.218750 1.000000
vt 0.187500 0.500000
vt 0.187500 1.000000
vt 0.156250 0.500000
vt 0.156250 1.000000
vt 0.125000 0.500000
vt 0.125000 1.000000
vt 0.093750 0.500000
vt 0.093750 1.000000
vt 0.062500 0.500000
vt 0.062500 1.000000
vt 0.031250 0.500000
vt 0.031250 1.000000
vt 0.000000 0.500000
vt 0.796822 0.014612
vt 0.514612 0.203178
vt 0.703178 0.485388
vt 0.968750 0.500000
vt 1.000000 1.000000
vt 1.000000 0.500000
vt 0.937500 0.500000
vt 0.968750 1.000000
vt 0.906250 1.000000
vt 0.937500 1.000000
vt 0.875000 0.500000
vt 0.906250 0.500000
vt 0.843750 0.500000
vt 0.875000 1.000000
vt 0.812500 0.500000
vt 0.843750 1.000000
vt 0.781250 1.000000
vt 0.812500 1.000000
vt 0.750000 0.500000
vt 0.781250 0.500000
vt 0.718750 0.500000
vt 0.750000 1.000000
vt 0.687500 0.500000
vt 0.718750 1.000000
vt 0.656250 0.500000
vt 0.687500 1.000000
vt 0.625000 0.500000
vt 0.656250 1.000000
vt 0.593750 0.500000
vt 0.625000 1.000000
vt 0.562500 0.500000
vt 0.593750 1.000000
vt 0.531250 1.000000
vt 0.562500 1.000000
vt 0.500000 0.500000
vt 0.531250 0.500000
vt 0.468750 0.500000
vt 0.500000 1.000000
vt 0.437500 0.500000
vt 0.468750 1.000000
vt 0.406250 0.500000
vt 0.437500 1.000000
vt 0.375000 0.500000
vt 0.406250 1.000000
vt 0.343750 0.500000
vt 0.375000 1.000000
vt 0.312500 1.000000
vt 0.343750 1.000000
vt 0.281250 0.500000
vt 0.312500 0.500000
vt 0.250000 0.500000
vt 0.281250 1.000000
vt 0.218750 0.500000
vt 0.250000 1.000000
vt 0.187500 0.500000
vt 0.218750 1.000000
vt 0.156250 1.000000
vt 0.187500 1.000000
vt 0.125000 0.500000
vt 0.156250 0.500000
vt 0.093750 0.500000
vt 0.125000 1.000000
vt 0.062500 0.500000
vt 0.093750 1.000000
vt 0.031250 0.500000
vt 0.062500 1.000000
vt 0.000000 0.500000
vt 0.031250 1.000000
vt 0.703178 0.014612
vt 0.985388 0.203178
vt 0.796822 0.485388
vt 0.718750 1.000000
vt 0.625000 1.000000
vt 0.000000 1.000000
vt 0.000000 1.000000
vt 0.750000 0.490000
vt 0.796822 0.485388
vt 0.841844 0.471731
vt 0.883337 0.449553
vt 0.919706 0.419706
vt 0.985388 0.296822
vt 0.949553 0.383337
vt 0.971731 0.341844
vt 0.990000 0.250000
vt 0.985388 0.203178
vt 0.971731 0.158156
vt 0.949553 0.116663
vt 0.919706 0.080294
vt 0.883337 0.050447
vt 0.841844 0.028269
vt 0.750000 0.010000
vt 0.703178 0.014612
vt 0.658156 0.028269
vt 0.616663 0.050447
vt 0.580294 0.080294
vt 0.550447 0.116663
vt 0.528269 0.158156
vt 0.510000 0.250000
vt 0.514612 0.296822
vt 0.528269 0.341844
vt 0.550447 0.383337
vt 0.580294 0.419706
vt 0.616663 0.449553
vt 0.658156 0.471731
vt 0.750000 0.490000
vt 0.703178 0.485388
vt 0.658156 0.471731
vt 0.616663 0.449553
vt 0.580294 0.419706
vt 0.550447 0.383337
vt 0.528269 0.341844
vt 0.514612 0.296822
vt 0.510000 0.250000
vt 0.514612 0.203178
vt 0.528269 0.158156
vt 0.550447 0.116663
vt 0.580294 0.080294
vt 0.616663 0.050447
vt 0.658156 0.028269
vt 0.750000 0.010000
vt 0.796822 0.014612
vt 0.841844 0.028269
vt 0.883337 0.050447
vt 0.919706 0.080294
vt 0.949553 0.116663
vt 0.971731 0.158156
vt 0.990000 0.250000
vt 0.985388 0.296822
vt 0.971731 0.341844
vt 0.949553 0.383337
vt 0.919706 0.419706
vt 0.883337 0.449553
vt 0.841844 0.471731
vn 0.0975 -0.0995 -0.9902
vn 0.2888 -0.0995 -0.9522
vn 0.4691 -0.0995 -0.8775
vn 0.6312 -0.0995 -0.7692
vn 0.7692 -0.0995 -0.6312
vn 0.8775 -0.0995 -0.4691
vn 0.9522 -0.0995 -0.2888
vn 0.9902 -0.0995 -0.0975
vn 0.9902 -0.0995 0.0975
vn 0.9522 -0.0995 0.2888
vn 0.8775 -0.0995 0.4691
vn 0.7692 -0.0995 0.6312
vn 0.6312 -0.0995 0.7692
vn 0.4691 -0.0995 0.8775
vn 0.2888 -0.0995 0.9522
vn 0.0975 -0.0995 0.9902
vn -0.0975 -0.0995 0.9902
vn -0.2888 -0.0995 0.9522
vn -0.4691 -0.0995 0.8775
vn -0.6312 -0.0995 0.7692
vn -0.7692 -0.0995 0.6312
vn -0.8775 -0.0995 0.4691
vn -0.9522 -0.0995 0.2888
vn -0.9902 -0.0995 0.0975
vn -0.9902 -0.0995 -0.0975
vn -0.9522 -0.0995 -0.2888
vn -0.8775 -0.0995 -0.4691
vn -0.7692 -0.0995 -0.6312
vn -0.6312 -0.0995 -0.7692
vn -0.4691 -0.0995 -0.8775
vn -0.2888 -0.0995 -0.9522
vn -0.0975 -0.0995 -0.9902
vn -0.0000 -1.0000 -0.0000
vn -0.0977 0.0863 0.9915
vn -0.0976 0.0863 0.9915
vn -0.2892 0.0863 0.9534
vn -0.4696 0.0863 0.8786
vn -0.6320 0.0863 0.7701
vn -0.7701 0.0863 0.6320
vn -0.8786 0.0863 0.4696
vn -0.9534 0.0863 0.2892
vn -0.9915 0.0863 0.0977
vn -0.9915 0.0863 0.0976
vn -0.9915 0.0863 -0.0977
vn -0.9915 0.0863 -0.0976
vn -0.9534 0.0863 -0.2892
vn -0.8786 0.0863 -0.4696
vn -0.7701 0.0863 -0.6320
vn -0.6320 0.0863 -0.7701
vn -0.4696 0.0863 -0.8786
vn -0.2892 0.0863 -0.9534
vn -0.0977 0.0863 -0.9915
vn -0.0976 0.0863 -0.9915
vn 0.0977 0.0863 -0.9915
vn 0.0976 0.0863 -0.9915
vn 0.2892 0.0863 -0.9534
vn 0.4696 0.0863 -0.8786
vn 0.6320 0.0863 -0.7701
vn 0.7701 0.0863 -0.6320
vn 0.8786 0.0863 -0.4696
vn 0.9534 0.0863 -0.2892
vn 0.9915 0.0863 -0.0977
vn 0.9915 0.0863 -0.0976
vn 0.9915 0.0863 0.0977
vn 0.9915 0.0863 0.0976
vn 0.9534 0.0863 0.2892
vn 0.8786 0.0863 0.4696
vn 0.7701 0.0863 0.6320
vn 0.6320 0.0863 0.7701
vn 0.4696 0.0863 0.8786
vn 0.2892 0.0863 0.9534
vn 0.0977 0.0863 0.9915
vn 0.0976 0.0863 0.9915
vn -0.0000 1.0000 0.0000
s 1
f 1/1/1 2/2/1 3/3/1
f 4/4/2 5/5/2 2/2/2
f 6/6/3 7/7/3 5/5/3
f 8/8/4 9/9/4 7/7/4
f 10/10/5 11/11/5 9/9/5
f 12/12/6 13/13/6 11/11/6
f 14/14/7 15/15/7 13/13/7
f 16/16/8 17/17/8 15/15/8
f 18/18/9 19/19/9 17/17/9
f 19/19/10 20/20/10 21/21/10
f 20/20/11 22/22/11 21/21/11
f 23/23/12 24/24/12 22/22/12
f 24/24/13 25/25/13 26/26/13
f 25/25/14 27/27/14 26/26/14
f 28/28/15 29/29/15 27/27/15
f 30/30/16 31/31/16 29/29/16
f 32/32/17 33/33/17 31/31/17
f 34/34/18 35/35/18 33/33/18
f 36/36/19 37/37/19 35/35/19
f 38/38/20 39/39/20 37/37/20
f 40/40/21 41/41/21 39/39/21
f 42/42/22 43/43/22 41/41/22
f 44/44/23 45/45/23 43/43/23
f 46/46/24 47/47/24 45/45/24
f 48/48/25 49/49/25 47/47/25
f 50/50/26 51/51/26 49/49/26
f 52/52/27 53/53/27 51/51/27
f 54/54/28 55/55/28 53/53/28
f 56/56/29 57/57/29 55/55/29
f 58/58/30 59/59/30 57/57/30
f 60/60/31 61/61/31 59/59/31
f 62/62/32 3/63/32 61/61/32
f 29/64/33 45/65/33 61/66/33
f 63/67/34 64/68/35 65/69/34
f 66/70/36 67/71/36 63/67/36
f 66/70/37 68/72/37 69/73/37
f 70/74/38 68/72/38 71/75/38
f 72/76/39 73/77/39 70/74/39
f 74/78/40 75/79/40 72/76/40
f 74/78/41 76/80/41 77/81/41
f 78/82/42 76/80/43 79/83/42
f 80/84/44 81/85/45 78/82/44
f 82/86/46 83/87/46 80/84/46
f 84/88/47 85/89/47 82/86/47
f 86/90/48 87/91/48 84/88/48
f 88/92/49 89/93/49 86/90/49
f 90/94/50 91/95/50 88/92/50
f 90/94/51 92/96/51 93/97/51
f 94/98/52 92/96/53 95/99/52
f 96/100/54 97/101/55 94/98/54
f 98/102/56 99/103/56 96/100/56
f 100/104/57 101/105/57 98/102/57
f 102/106/58 103/107/58 100/104/58
f 104/108/59 105/109/59 102/106/59
f 104/108/60 106/110/60 107/111/60
f 108/112/61 106/110/61 109/113/61
f 110/114/62 111/115/63 108/112/62
f 112/116/64 113/117/65 110/114/64
f 114/118/66 115/119/66 112/116/66
f 114/118/67 116/120/67 117/121/67
f 118/122/68 116/120/68 119/123/68
f 120/124/69 121/125/69 118/122/69
f 122/126/70 123/127/70 120/124/70
f 124/128/71 125/129/71 122/126/71
f 65/130/72 126/131/73 124/128/72
f 96/132/74 80/133/74 63/134/74
f 4/4/74 64/68/74 67/71/74
f 6/6/74 67/71/74 69/73/74
f 6/6/74 68/72/74 8/8/74
f 8/8/74 73/77/74 10/10/74
f 12/12/74 73/77/74 75/79/74
f 14/14/74 75/79/74 77/81/74
f 14/14/74 76/80/74 16/16/74
f 16/16/74 81/85/74 18/18/74
f 127/135/74 81/85/74 83/87/74
f 20/20/74 83/87/74 85/89/74
f 20/20/74 87/91/74 23/23/74
f 23/23/74 89/93/74 128/136/74
f 25/25/74 89/93/74 91/95/74
f 28/28/74 91/95/74 93/97/74
f 28/28/74 92/96/74 30/30/74
f 30/30/74 97/101/74 32/32/74
f 34/34/74 97/101/74 99/103/74
f 36/36/74 99/103/74 101/105/74
f 38/38/74 101/105/74 103/107/74
f 38/38/74 105/109/74 40/40/74
f 42/42/74 105/109/74 107/111/74
f 42/42/74 106/110/74 44/44/74
f 44/44/74 111/115/74 46/46/74
f 46/46/74 113/117/74 48/48/74
f 50/50/74 113/117/74 115/119/74
f 52/52/74 115/119/74 117/121/74
f 52/52/74 116/120/74 54/54/74
f 54/54/74 121/125/74 56/56/74
f 58/58/74 121/125/74 123/127/74
f 58/58/74 125/129/74 60/60/74
f 60/60/74 126/131/74 62/62/74
f 62/62/74 64/137/74 1/138/74
f 1/1/1 4/4/1 2/2/1
f 4/4/2 6/6/2 5/5/2
f 6/6/3 8/8/3 7/7/3
f 8/8/4 10/10/4 9/9/4
f 10/10/5 12/12/5 11/11/5
f 12/12/6 14/14/6 13/13/6
f 14/14/7 16/16/7 15/15/7
f 16/16/8 18/18/8 17/17/8
f 18/18/9 127/135/9 19/19/9
f 19/19/10 127/135/10 20/20/10
f 20/20/11 23/23/11 22/22/11
f 23/23/12 128/136/12 24/24/12
f 24/24/13 128/136/13 25/25/13
f 25/25/14 28/28/14 27/27/14
f 28/28/15 30/30/15 29/29/15
f 30/30/16 32/32/16 31/31/16
f 32/32/17 34/34/17 33/33/17
f 34/34/18 36/36/18 35/35/18
f 36/36/19 38/38/19 37/37/19
f 38/38/20 40/40/20 39/39/20
f 40/40/21 42/42/21 41/41/21
f 42/42/22 44/44/22 43/43/22
f 44/44/23 46/46/23 45/45/23
f 46/46/24 48/48/24 47/47/24
f 48/48/25 50/50/25 49/49/25
f 50/50/26 52/52/26 51/51/26
f 52/52/27 54/54/27 53/53/27
f 54/54/28 56/56/28 55/55/28
f 56/56/29 58/58/29 57/57/29
f 58/58/30 60/60/30 59/59/30
f 60/60/31 62/62/31 61/61/31
f 62/62/32 1/138/32 3/63/32
f 61/66/33 3/139/33 2/140/33
f 2/140/33 5/141/33 7/142/33
f 7/142/33 9/143/33 15/144/33
f 9/143/33 11/145/33 15/144/33
f 11/145/33 13/146/33 15/144/33
f 15/144/33 17/147/33 19/148/33
f 19/148/33 21/149/33 22/150/33
f 22/150/33 24/151/33 29/64/33
f 24/151/33 26/152/33 29/64/33
f 26/152/33 27/153/33 29/64/33
f 29/64/33 31/154/33 33/155/33
f 33/155/33 35/156/33 29/64/33
f 35/156/33 37/157/33 29/64/33
f 37/157/33 39/158/33 41/159/33
f 41/159/33 43/160/33 45/65/33
f 45/65/33 47/161/33 49/162/33
f 49/162/33 51/163/33 53/164/33
f 53/164/33 55/165/33 57/166/33
f 57/166/33 59/167/33 61/66/33
f 61/66/33 2/140/33 15/144/33
f 2/140/33 7/142/33 15/144/33
f 15/144/33 19/148/33 22/150/33
f 37/157/33 41/159/33 45/65/33
f 45/65/33 49/162/33 61/66/33
f 49/162/33 53/164/33 61/66/33
f 53/164/33 57/166/33 61/66/33
f 15/144/33 22/150/33 61/66/33
f 22/150/33 29/64/33 61/66/33
f 29/64/33 37/157/33 45/65/33
f 63/67/34 67/71/35 64/68/35
f 66/70/36 69/73/36 67/71/36
f 66/70/37 71/75/37 68/72/37
f 70/74/38 73/77/38 68/72/38
f 72/76/39 75/79/39 73/77/39
f 74/78/40 77/81/40 75/79/40
f 74/78/41 79/83/41 76/80/41
f 78/82/42 81/85/43 76/80/43
f 80/84/44 83/87/45 81/85/45
f 82/86/46 85/89/46 83/87/46
f 84/88/47 87/91/47 85/89/47
f 86/90/48 89/93/48 87/91/48
f 88/92/49 91/95/49 89/93/49
f 90/94/50 93/97/50 91/95/50
f 90/94/51 95/99/51 92/96/51
f 94/98/52 97/101/53 92/96/53
f 96/100/54 99/103/55 97/101/55
f 98/102/56 101/105/56 99/103/56
f 100/104/57 103/107/57 101/105/57
f 102/106/58 105/109/58 103/107/58
f 104/108/59 107/111/59 105/109/59
f 104/108/60 109/113/60 106/110/60
f 108/112/61 111/115/61 106/110/61
f 110/114/62 113/117/63 111/115/63
f 112/116/64 115/119/65 113/117/65
f 114/118/66 117/121/66 115/119/66
f 114/118/67 119/123/67 116/120/67
f 118/122/68 121/125/68 116/120/68
f 120/124/69 123/127/69 121/125/69
f 122/126/70 125/129/70 123/127/70
f 124/128/71 126/131/71 125/129/71
f 65/130/72 64/137/73 126/131/73
f 63/134/74 65/168/74 124/169/74
f 124/169/74 122/170/74 63/134/74
f 122/170/74 120/171/74 63/134/74
f 120/171/74 118/172/74 119/173/74
f 119/173/74 114/174/74 120/171/74
f 114/174/74 112/175/74 120/171/74
f 112/175/74 110/176/74 108/177/74
f 108/177/74 109/178/74 112/175/74
f 109/178/74 104/179/74 112/175/74
f 104/179/74 102/180/74 100/181/74
f 100/181/74 98/182/74 104/179/74
f 98/182/74 96/132/74 104/179/74
f 96/132/74 94/183/74 95/184/74
f 95/184/74 90/185/74 96/132/74
f 90/185/74 88/186/74 96/132/74
f 88/186/74 86/187/74 84/188/74
f 84/188/74 82/189/74 88/186/74
f 82/189/74 80/133/74 88/186/74
f 80/133/74 78/190/74 79/191/74
f 79/191/74 74/192/74 80/133/74
f 74/192/74 72/193/74 80/133/74
f 72/193/74 70/194/74 71/195/74
f 71/195/74 66/196/74 72/193/74
f 66/196/74 63/134/74 72/193/74
f 63/134/74 120/171/74 112/175/74
f 112/175/74 104/179/74 96/132/74
f 96/132/74 88/186/74 80/133/74
f 80/133/74 72/193/74 63/134/74
f 63/134/74 112/175/74 96/132/74
f 4/4/74 1/1/74 64/68/74
f 6/6/74 4/4/74 67/71/74
f 6/6/74 69/73/74 68/72/74
f 8/8/74 68/72/74 73/77/74
f 12/12/74 10/10/74 73/77/74
f 14/14/74 12/12/74 75/79/74
f 14/14/74 77/81/74 76/80/74
f 16/16/74 76/80/74 81/85/74
f 127/135/74 18/18/74 81/85/74
f 20/20/74 127/135/74 83/87/74
f 20/20/74 85/89/74 87/91/74
f 23/23/74 87/91/74 89/93/74
f 25/25/74 128/136/74 89/93/74
f 28/28/74 25/25/74 91/95/74
f 28/28/74 93/97/74 92/96/74
f 30/30/74 92/96/74 97/101/74
f 34/34/74 32/32/74 97/101/74
f 36/36/74 34/34/74 99/103/74
f 38/38/74 36/36/74 101/105/74
f 38/38/74 103/107/74 105/109/74
f 42/42/74 40/40/74 105/109/74
f 42/42/74 107/111/74 106/110/74
f 44/44/74 106/110/74 111/115/74
f 46/46/74 111/115/74 113/117/74
f 50/50/74 48/48/74 113/117/74
f 52/52/74 50/50/74 115/119/74
f 52/52/74 117/121/74 116/120/74
f 54/54/74 116/120/74 121/125/74
f 58/58/74 56/56/74 121/125/74
f 58/58/74 123/127/74 125/129/74
f 60/60/74 125/129/74 126/131/74
f 62/62/74 126/131/74 64/137/74
