# Blender v3.0.0 OBJ File: ''
# www.blender.org
o Cube_Cube.001
v -4.902107 1.338284 3.767727
v -4.902107 1.583378 3.767727
v -4.902107 1.338284 1.767727
v -4.902107 1.583378 1.767727
v -2.902107 1.338284 3.767727
v -2.902107 1.583378 3.767727
v -2.902107 1.338284 1.767727
v -2.902107 1.583378 1.767727
v -4.902107 1.338284 2.767727
v -3.902107 1.338284 1.767727
v -2.902107 1.338284 2.767727
v -4.902107 1.338284 3.267727
v -4.402107 1.338284 1.767727
v -2.902107 1.338284 2.267727
v -3.402107 1.338284 3.767727
v -4.902107 1.338284 2.267727
v -3.402107 1.338284 1.767727
v -2.902107 1.338284 3.267727
v -4.402107 1.338284 3.767727
v -3.402107 1.338284 2.267727
v -4.402107 1.338284 2.267727
v -4.402107 1.338284 3.267727
v -3.402107 1.338284 3.267727
v -4.743160 1.217675 3.188253
v -4.743160 1.217675 3.608780
v -4.322634 1.217675 1.926673
v -4.743160 1.217675 1.926673
v -3.061054 1.217675 2.347200
v -3.061054 1.217675 1.926673
v -3.481580 1.217675 3.608780
v -3.061054 1.217675 3.608780
v -4.743160 1.217675 2.347200
v -3.481580 1.217675 1.926673
v -3.061054 1.217675 3.188253
v -4.322634 1.217675 3.608780
v -3.481580 1.217675 2.347200
v -4.322634 1.217675 2.347200
v -4.322634 1.217675 3.188253
v -3.481580 1.217675 3.188253
v -4.902107 1.338284 3.978429
v -4.902107 1.583378 3.978429
v -2.902107 1.583378 3.978429
v -2.902107 1.338284 3.978429
v -3.402107 1.338284 3.978429
v -4.402107 1.338284 3.978429
v -3.902107 1.338284 3.978429
v -4.743160 -0.255102 3.188253
v -4.743160 -0.255102 3.608780
v -4.322634 -0.255102 1.926673
v -4.743160 -0.255102 1.926673
v -3.061054 -0.255102 2.347200
v -3.061054 -0.255102 1.926673
v -3.481580 -0.255102 3.608780
v -3.061054 -0.255102 3.608780
v -4.743160 -0.255102 2.347200
v -3.481580 -0.255102 1.926673
v -3.061054 -0.255102 3.188253
v -4.322634 -0.255102 3.608780
v -3.481580 -0.255102 2.347200
v -4.322634 -0.255102 2.347200
v -4.322634 -0.255102 3.188253
v -3.481580 -0.255102 3.188253
v -3.486437 3.667510 3.796992
v -3.179896 3.629944 3.796992
v -4.624318 3.629944 3.796992
v -4.317777 3.667510 3.796992
v -3.179896 3.629944 3.949164
v -3.486437 3.667510 3.949164
v -4.317777 3.667510 3.949164
v -4.624318 3.629944 3.949164
vt 0.625000 0.750000
vt 0.625000 0.750000
vt 0.375000 0.750000
vt 0.375000 0.375000
vt 0.375000 0.312500
vt 0.625000 0.250000
vt 0.625000 0.000000
vt 0.625000 0.000000
vt 0.821944 0.750000
vt 0.187500 0.562500
vt 0.187500 0.500000
vt 0.187500 0.500000
vt 0.875000 0.500000
vt 0.625000 0.500000
vt 0.312500 0.562500
vt 0.312500 0.687500
vt 0.375000 0.062500
vt 0.375000 0.000000
vt 0.375000 0.000000
vt 0.375000 0.562500
vt 0.375000 0.500000
vt 0.375000 0.500000
vt 0.312500 0.750000
vt 0.312500 0.750000
vt 0.375000 0.250000
vt 0.375000 0.187500
vt 0.375000 0.187500
vt 0.125000 0.562500
vt 0.187500 0.562500
vt 0.187500 0.562500
vt 0.375000 0.812500
vt 0.375000 0.750000
vt 0.375000 0.750000
vt 0.187500 0.500000
vt 0.375000 0.187500
vt 0.375000 0.687500
vt 0.312500 0.687500
vt 0.375000 0.812500
vt 0.375000 0.437500
vt 0.375000 0.437500
vt 0.187500 0.687500
vt 0.187500 0.750000
vt 0.187500 0.687500
vt 0.312500 0.500000
vt 0.312500 0.562500
vt 0.375000 0.687500
vt 0.375000 0.250000
vt 0.375000 0.937500
vt 0.375000 1.000000
vt 0.375000 0.937500
vt 0.125000 0.687500
vt 0.125000 0.687500
vt 0.375000 0.562500
vt 0.625000 0.000000
vt 0.375000 0.687500
vt 0.312500 0.750000
vt 0.312500 0.687500
vt 0.375000 0.500000
vt 0.312500 0.562500
vt 0.312500 0.500000
vt 0.125000 0.562500
vt 0.125000 0.500000
vt 0.187500 0.687500
vt 0.125000 0.750000
vt 0.125000 0.687500
vt 0.375000 0.437500
vt 0.375000 0.937500
vt 0.375000 0.062500
vt 0.375000 0.000000
vt 0.375000 0.312500
vt 0.375000 0.250000
vt 0.375000 0.562500
vt 0.821944 0.750000
vt 0.678056 0.750000
vt 0.625000 0.750000
vt 0.625000 1.000000
vt 0.375000 0.875000
vt 0.625000 0.750000
vt 0.375000 0.625000
vt 0.375000 0.750000
vt 0.678056 0.750000
vt 0.625000 0.000000
vt 0.875000 0.750000
vt 0.375000 1.000000
vt 0.375000 1.000000
vt 0.187500 0.750000
vt 0.125000 0.625000
vt 0.375000 0.937500
vt 0.125000 0.562500
vt 0.250000 0.750000
vt 0.312500 0.750000
vt 0.250000 0.500000
vt 0.312500 0.500000
vt 0.375000 0.812500
vt 0.375000 0.125000
vt 0.375000 0.000000
vt 0.625000 0.000000
vt 0.187500 0.750000
vt 0.375000 1.000000
vt 0.375000 0.062500
vt 0.375000 0.312500
vt 0.875000 0.750000
vt 0.375000 0.812500
vt 0.625000 1.000000
vt 0.625000 0.803056
vt 0.625000 0.946944
vn 1.0000 0.0000 0.0000
vn 0.0000 0.0000 -1.0000
vn -0.1216 0.9926 0.0000
vn 0.8350 0.5502 0.0000
vn 0.0000 1.0000 0.0000
vn 0.0000 -1.0000 0.0000
vn -0.6045 -0.7966 0.0000
vn 0.6045 -0.7966 0.0000
vn -0.8350 0.5502 0.0000
vn -1.0000 0.0000 0.0000
vn 0.0000 0.0000 1.0000
vn 0.0000 0.5502 0.8350
vn 0.0000 0.5502 -0.8350
vn 0.0000 -0.7966 0.6045
vn 0.0000 -0.7966 -0.6045
vn 0.9909 0.1345 0.0000
vn 0.1216 0.9926 0.0000
vn -0.9909 0.1345 0.0000
vn 0.0000 0.0143 -0.9999
vn 0.0000 0.0143 0.9999
s off
f 6/1/1 42/2/1 5/3/1
f 10/4/2 13/5/2 4/6/2
f 66/7/3 70/8/3 69/9/3
f 21/10/4 26/11/4 13/12/4
f 4/13/5 6/1/5 8/14/5
f 21/10/6 20/15/6 23/16/6
f 12/17/7 25/18/7 1/19/7
f 14/20/8 29/21/8 7/22/8
f 23/16/9 30/23/9 15/24/9
f 27/25/10 55/26/10 32/27/10
f 32/28/11 60/29/11 37/30/11
f 30/31/11 54/32/11 31/33/11
f 37/30/1 49/34/1 26/11/1
f 21/10/12 32/28/12 37/30/12
f 16/35/7 27/25/7 32/27/7
f 23/16/13 34/36/13 39/37/13
f 15/38/14 31/33/14 5/3/14
f 17/39/15 29/21/15 33/40/15
f 22/41/4 35/42/4 38/43/4
f 20/15/9 33/44/9 36/45/9
f 18/46/8 31/33/8 34/36/8
f 13/5/15 27/25/15 3/47/15
f 19/48/14 25/49/14 35/50/14
f 22/41/13 24/51/13 12/52/13
f 20/15/12 28/53/12 14/20/12
f 12/17/10 1/19/10 2/54/10
f 57/55/6 53/56/6 62/57/6
f 52/58/6 59/59/6 56/60/6
f 49/34/6 55/61/6 50/62/6
f 61/63/6 48/64/6 47/65/6
f 35/42/1 61/63/1 38/43/1
f 29/21/2 56/66/2 33/40/2
f 38/43/2 47/65/2 24/51/2
f 31/33/1 57/55/1 34/36/1
f 39/37/10 53/56/10 30/23/10
f 25/49/11 58/67/11 35/50/11
f 24/68/10 48/69/10 25/18/10
f 34/36/2 62/57/2 39/37/2
f 33/44/10 59/59/10 36/45/10
f 26/70/2 50/71/2 27/25/2
f 36/45/11 51/72/11 28/53/11
f 28/53/1 52/58/1 29/21/1
f 66/73/2 63/74/2 64/75/2
f 42/2/11 41/76/11 46/77/11
f 14/20/1 7/22/1 8/14/1
f 6/1/16 64/75/16 67/78/16
f 14/20/1 8/14/1 11/79/1
f 8/14/1 6/1/1 11/79/1
f 5/3/1 18/46/1 6/1/1
f 18/46/1 11/79/1 6/1/1
f 6/1/16 67/78/16 42/2/16
f 42/2/1 43/80/1 5/3/1
f 13/5/2 3/47/2 4/6/2
f 4/6/2 8/14/2 10/4/2
f 8/14/2 7/22/2 17/39/2
f 17/39/2 10/4/2 8/14/2
f 64/75/17 63/74/17 67/78/17
f 63/74/5 66/7/5 68/81/5
f 67/78/17 63/74/17 68/81/17
f 66/7/3 65/82/3 70/8/3
f 69/9/5 68/81/5 66/7/5
f 21/10/4 37/30/4 26/11/4
f 4/13/5 2/83/5 6/1/5
f 40/84/6 1/85/6 19/86/6
f 22/41/6 12/52/6 9/87/6
f 45/88/6 40/84/6 19/86/6
f 22/41/6 9/87/6 21/10/6
f 9/87/6 16/89/6 21/10/6
f 46/90/6 45/88/6 19/86/6
f 46/90/6 19/86/6 22/41/6
f 5/3/6 43/80/6 44/91/6
f 44/91/6 46/90/6 15/38/6
f 46/90/6 22/41/6 23/16/6
f 15/38/6 46/90/6 23/16/6
f 21/10/6 13/12/6 10/92/6
f 22/41/6 21/10/6 23/16/6
f 15/38/6 5/3/6 44/91/6
f 11/79/6 18/46/6 23/16/6
f 14/20/6 11/79/6 20/15/6
f 11/79/6 23/16/6 20/15/6
f 21/10/6 10/92/6 20/15/6
f 10/92/6 17/93/6 20/15/6
f 12/17/7 24/68/7 25/18/7
f 14/20/8 28/53/8 29/21/8
f 23/16/9 39/37/9 30/23/9
f 27/25/10 50/71/10 55/26/10
f 32/28/11 55/61/11 60/29/11
f 30/31/11 53/94/11 54/32/11
f 37/30/1 60/29/1 49/34/1
f 21/10/12 16/89/12 32/28/12
f 16/35/7 3/47/7 27/25/7
f 23/16/13 18/46/13 34/36/13
f 15/38/14 30/31/14 31/33/14
f 17/39/15 7/22/15 29/21/15
f 22/41/4 19/86/4 35/42/4
f 20/15/9 17/93/9 33/44/9
f 18/46/8 5/3/8 31/33/8
f 13/5/15 26/70/15 27/25/15
f 19/48/14 1/85/14 25/49/14
f 22/41/13 38/43/13 24/51/13
f 20/15/12 36/45/12 28/53/12
f 2/54/10 4/6/10 9/95/10
f 4/6/10 3/47/10 16/35/10
f 16/35/10 9/95/10 4/6/10
f 9/95/10 12/17/10 2/54/10
f 70/8/18 65/82/18 2/54/18
f 40/96/10 41/97/10 1/19/10
f 41/97/18 70/8/18 2/54/18
f 1/19/10 41/97/10 2/54/10
f 57/55/6 54/32/6 53/56/6
f 52/58/6 51/72/6 59/59/6
f 49/34/6 60/29/6 55/61/6
f 61/63/6 58/98/6 48/64/6
f 35/42/1 58/98/1 61/63/1
f 29/21/2 52/58/2 56/66/2
f 38/43/2 61/63/2 47/65/2
f 31/33/1 54/32/1 57/55/1
f 39/37/10 62/57/10 53/56/10
f 25/49/11 48/99/11 58/67/11
f 24/68/10 47/100/10 48/69/10
f 34/36/2 57/55/2 62/57/2
f 33/44/10 56/60/10 59/59/10
f 26/70/2 49/101/2 50/71/2
f 36/45/11 59/59/11 51/72/11
f 28/53/1 51/72/1 52/58/1
f 64/75/19 6/1/19 2/83/19
f 2/83/19 65/102/19 64/75/19
f 65/102/2 66/73/2 64/75/2
f 44/103/11 43/80/11 42/2/11
f 42/2/20 67/78/20 70/104/20
f 67/78/11 68/105/11 70/104/11
f 68/105/11 69/106/11 70/104/11
f 70/104/20 41/76/20 42/2/20
f 41/76/11 40/84/11 45/88/11
f 45/88/11 46/77/11 41/76/11
f 46/77/11 44/103/11 42/2/11
